<?xml version="1.0" standalone="no"?>
<!DOCTYPE svg PUBLIC "-//W3C//DTD SVG 20010904//EN"
 "http://www.w3.org/TR/2001/REC-SVG-20010904/DTD/svg10.dtd">
<svg version="1.0" xmlns="http://www.w3.org/2000/svg"
 width="512.000000pt" height="512.000000pt" viewBox="0 0 512.000000 512.000000"
 preserveAspectRatio="xMidYMid meet">
<metadata>
Created by potrace 1.11, written by Peter Selinger 2001-2013
</metadata>
<g transform="translate(0.000000,512.000000) scale(0.100000,-0.100000)"
fill="#000000" stroke="none">
<path d="M0 2560 l0 -2560 2560 0 2560 0 0 2560 0 2560 -2560 0 -2560 0 0
-2560z m540 1505 c-7 -8 -19 -15 -27 -15 -13 0 -13 3 -3 15 7 8 19 15 27 15
13 0 13 -3 3 -15z m30 -30 c-25 -25 -46 -41 -49 -34 -4 14 59 79 78 79 9 0 -2
-18 -29 -45z m38 -26 c-46 -53 -64 -67 -66 -54 -4 20 94 125 116 125 7 0 -15
-32 -50 -71z m45 -21 c-51 -51 -96 -89 -100 -85 -9 10 157 177 177 177 8 0
-27 -41 -77 -92z m37 -23 c-63 -63 -117 -110 -119 -104 -5 15 199 219 219 219
8 0 -37 -52 -100 -115z m35 -25 c-77 -77 -142 -135 -144 -129 -5 15 249 269
269 269 8 0 -48 -63 -125 -140z m45 -25 c-91 -91 -166 -161 -168 -155 -6 17
291 319 313 320 14 0 -30 -50 -145 -165z m38 -22 c-103 -103 -191 -184 -195
-180 -9 10 347 367 367 367 8 0 -69 -84 -172 -187z m38 -22 c-116 -116 -214
-207 -219 -204 -12 7 393 413 413 413 8 0 -79 -94 -194 -209z m2230 192 c-4
-10 -69 -211 -146 -448 l-139 -430 201 -620 c110 -341 203 -625 207 -632 3 -7
162 469 351 1058 190 589 348 1075 351 1080 3 6 124 8 300 7 l295 -3 -500
-1547 -501 -1548 -291 0 -292 0 -100 308 c-55 169 -149 458 -210 642 l-109
335 -41 -130 c-23 -71 -116 -359 -206 -640 l-164 -510 -296 -3 c-233 -2 -296
0 -296 10 0 7 -133 423 -295 923 l-294 910 222 223 222 222 11 -27 c7 -16 105
-319 220 -675 115 -356 212 -644 215 -640 4 4 133 401 289 882 155 481 311
964 347 1073 l64 197 295 0 c277 0 295 -1 290 -17z m-1976 0 c0 -10 -443 -453
-452 -453 -27 0 17 50 210 243 196 194 242 234 242 210z m-211 -279 c-123
-123 -226 -219 -228 -213 -2 6 97 112 220 235 123 123 226 219 228 213 2 -6
-97 -112 -220 -235z m18 -42 c-125 -125 -230 -223 -234 -219 -9 10 438 458
450 450 5 -3 -92 -107 -216 -231z m233 180 c0 -4 -101 -108 -225 -232 -124
-124 -225 -218 -225 -210 0 15 428 450 442 450 5 0 8 -3 8 -8z m-208 -274
c-121 -122 -225 -218 -229 -214 -8 8 438 448 447 440 2 -3 -96 -105 -218 -226z
m17 -54 c-123 -123 -226 -219 -228 -213 -2 6 97 112 220 235 123 123 226 219
228 213 2 -6 -97 -112 -220 -235z m18 -42 c-125 -125 -230 -223 -234 -219 -9
10 438 458 450 450 5 -3 -92 -107 -216 -231z m233 180 c0 -4 -101 -108 -225
-232 -124 -124 -225 -218 -225 -210 0 15 428 450 442 450 5 0 8 -3 8 -8z m11
-59 c-18 -33 -441 -448 -441 -433 0 15 428 450 443 450 4 0 3 -8 -2 -17z
m-202 -269 c-123 -123 -226 -219 -228 -213 -2 6 97 112 220 235 123 123 226
219 228 213 2 -6 -97 -112 -220 -235z m232 168 c-6 -9 -107 -114 -225 -232
-150 -149 -216 -209 -216 -195 0 22 428 457 442 449 4 -3 4 -13 -1 -22z m-199
-265 c-122 -122 -225 -218 -229 -214 -4 4 94 109 217 232 124 124 227 220 229
214 2 -6 -96 -111 -217 -232z m238 185 c0 -4 -101 -108 -225 -232 -124 -124
-225 -218 -225 -210 0 15 428 450 442 450 5 0 8 -3 8 -8z m-208 -275 c-122
-122 -225 -218 -229 -214 -4 4 94 109 217 232 124 124 227 220 229 214 2 -6
-96 -111 -217 -232z m238 186 c-1 -16 -438 -458 -445 -451 -8 8 421 458 436
458 5 0 9 -3 9 -7z m-201 -279 c-122 -122 -227 -220 -232 -217 -5 3 91 106
214 229 122 122 227 220 232 217 5 -3 -91 -106 -214 -229z m10 -50 c-123 -123
-226 -219 -228 -213 -2 6 97 112 220 235 123 123 226 219 228 213 2 -6 -97
-112 -220 -235z"/>
</g>
</svg>
